<svg width="26" height="13" viewBox="0 0 26 13" version="1.1" xmlns="http://www.w3.org/2000/svg" xmlns:xlink="http://www.w3.org/1999/xlink">
<title>Vector</title>
<desc>Created using Figma</desc>
<g id="Canvas" transform="translate(-3503 -8013)">
<g id="Vector">
<use xlink:href="#path0_stroke" transform="translate(3504 8014)" fill="#FFFFFF"/>
</g>
</g>
<defs>
<path id="path0_stroke" d="M 12 10.5L 11.3415 11.2526C 11.7185 11.5825 12.2815 11.5825 12.6585 11.2526L 12 10.5ZM 24.6585 0.752577C 25.0741 0.388895 25.1163 -0.242868 24.7526 -0.658505C 24.3889 -1.07414 23.7571 -1.11626 23.3415 -0.752577L 24.6585 0.752577ZM 0.658505 -0.752577C 0.242868 -1.11626 -0.388895 -1.07414 -0.752577 -0.658505C -1.11626 -0.242868 -1.07414 0.388895 -0.658505 0.752577L 0.658505 -0.752577ZM 12.6585 11.2526L 24.6585 0.752577L 23.3415 -0.752577L 11.3415 9.74742L 12.6585 11.2526ZM 12.6585 9.74742L 0.658505 -0.752577L -0.658505 0.752577L 11.3415 11.2526L 12.6585 9.74742Z"/>
</defs>
</svg>
