<svg width="96" height="21" viewBox="0 0 96 21" version="1.1" xmlns="http://www.w3.org/2000/svg" xmlns:xlink="http://www.w3.org/1999/xlink">
<title>Vector</title>
<desc>Created using Figma</desc>
<g id="Canvas" transform="translate(-2796 -8609)">
<g id="Vector">
<use xlink:href="#path0_fill" transform="translate(2796 8609)" fill="#0168BB"/>
</g>
</g>
<defs>
<path id="path0_fill" fill-rule="evenodd" d="M 7.472 18.3526C 8.216 18.3526 8.912 18.2163 9.568 17.9517C 9.568 17.9757 10.904 20.0523 10.928 20.0603C 9.74554 20.6952 8.42131 21.0181 7.08 20.9984C 2.976 21.0064 0 18.2884 0 13.9669C 0 9.61325 3.12 6.91128 7.08 6.91128C 8.48 6.91128 9.592 7.21595 10.704 7.80926L 9.424 9.97405C 8.752 9.70947 8.064 9.5892 7.344 9.5892C 4.92 9.5892 3.04 11.1366 3.04 13.9669C 3.04 16.6448 4.856 18.3526 7.472 18.3526ZM 17.816 6.91128C 21.848 6.91128 24.768 9.77361 24.768 13.9669C 24.768 18.1361 21.848 20.9984 17.808 20.9984C 13.808 20.9984 10.888 18.1361 10.888 13.9669C 10.888 9.77361 13.808 6.91128 17.816 6.91128ZM 17.816 9.49299C 15.568 9.49299 13.928 11.2328 13.928 13.9669C 13.928 16.6769 15.568 18.4167 17.816 18.4167C 20.12 18.4167 21.736 16.6769 21.736 13.9669C 21.736 11.2328 20.12 9.49299 17.816 9.49299ZM 26.68 20.6937L 26.68 7.21595L 29.688 7.21595L 29.688 20.6857L 26.68 20.6857L 26.68 20.6937ZM 26.28 3.07079C 26.3112 2.59128 26.5233 2.14163 26.8731 1.81308C 27.223 1.48453 27.6845 1.30171 28.164 1.30171C 28.6435 1.30171 29.105 1.48453 29.4549 1.81308C 29.8047 2.14163 30.0168 2.59128 30.048 3.07079C 30.0481 3.57426 29.8513 4.05772 29.4999 4.41746C 29.1484 4.7772 28.6702 4.98455 28.168 4.99504C 27.6657 4.98455 27.1876 4.7772 26.8361 4.41746C 26.4847 4.05772 26.2879 3.57426 26.288 3.07079L 26.28 3.07079ZM 32.312 8.06583C 34.2824 7.32359 36.3672 6.93284 38.472 6.91128C 41.912 6.91128 44.088 8.21817 44.088 12.0186L 44.088 20.6937L 41.12 20.6937L 41.12 12.2992C 41.12 10.3509 39.912 9.65334 38.24 9.65334C 37.176 9.65334 36.112 9.79766 35.32 10.0462L 35.32 20.6857L 32.32 20.6857L 32.32 8.06583L 32.312 8.06583ZM 46.608 0L 49.616 0L 49.616 7.57675C 50.256 7.24001 51.496 6.91128 52.68 6.91128C 56.568 6.91128 59.48 9.39678 59.48 13.7263C 59.48 18.08 56.6 20.9984 51.624 20.9984C 49.68 20.9984 47.976 20.5975 46.608 20.1165L 46.608 0ZM 49.616 18.1361C 50.192 18.3205 50.952 18.4167 51.712 18.4167C 54.472 18.4167 56.448 16.8933 56.448 13.7905C 56.448 11.1687 54.592 9.62127 52.32 9.62127C 51.136 9.62127 50.224 9.92594 49.616 10.2627L 49.616 18.1361ZM 68.176 11.6578C 68.176 10.1985 67.072 9.52506 65.584 9.52506C 64.04 9.52506 62.824 9.98207 61.704 10.6235L 61.704 8.00169C 63.0438 7.27195 64.5472 6.89666 66.072 6.91128C 69.016 6.91128 71.112 8.12997 71.112 11.5054L 71.112 20.4211C 69.832 20.7579 68.016 20.9664 66.496 20.9664C 63.008 20.9664 60.456 19.908 60.456 16.8613C 60.456 14.1192 62.792 12.7803 66.68 12.7803L 68.168 12.7803L 68.168 11.6578L 68.176 11.6578ZM 68.176 14.7847L 66.896 14.7847C 64.8 14.7847 63.432 15.4021 63.432 16.7731C 63.432 18.1682 64.712 18.7134 66.528 18.7134C 66.984 18.7134 67.624 18.6572 68.168 18.5691L 68.168 14.7927L 68.176 14.7847ZM 73.296 17.0457C 74.4683 17.9766 75.9055 18.51 77.4 18.5691C 78.736 18.5691 79.616 18.112 79.616 17.0457C 79.616 15.9473 78.824 15.5544 77.096 15.0974C 74.296 14.456 73.12 13.3335 73.12 10.9843C 73.12 8.25024 75.184 6.91128 77.92 6.91128C 79.44 6.91128 80.648 7.24001 81.776 7.94557L 81.776 10.7117C 80.7039 9.85413 79.3794 9.37503 78.008 9.34867C 76.704 9.34867 76.008 9.99009 76.008 10.872C 76.008 11.754 76.576 12.203 78.128 12.6359C 81.2 13.3014 82.528 14.456 82.528 16.8853C 82.528 19.7236 80.376 20.9984 77.464 20.9984C 76.0034 21.0276 74.5633 20.6502 73.304 19.908L 73.304 17.0457L 73.296 17.0457ZM 86.648 14.6404L 86.648 14.6965C 86.832 17.1018 88.888 18.4167 90.992 18.4167C 92.84 18.4167 94.176 17.9838 95.512 17.1018L 95.512 19.7477C 94.296 20.6056 92.504 20.9984 90.776 20.9984C 86.584 20.9984 83.736 18.3205 83.736 14.0631C 83.736 9.77361 86.528 6.91128 90.232 6.91128C 94.152 6.91128 96 9.43686 96 13.117L 96 14.6404L 86.64 14.6404L 86.648 14.6404ZM 93.176 12.6921C 93.112 10.5914 92.08 9.43686 90.136 9.43686C 88.408 9.43686 87.136 10.6556 86.736 12.6921L 93.176 12.6921Z"/>
</defs>
</svg>
