<svg width="75" height="34" viewBox="0 0 75 34" version="1.1" xmlns="http://www.w3.org/2000/svg" xmlns:xlink="http://www.w3.org/1999/xlink">
<title>Group</title>
<desc>Created using Figma</desc>
<g id="Canvas" transform="translate(-2934 -8602)">
<g id="Group">
<g id="csv">
<use xlink:href="#path0_fill" transform="translate(2952 8609)" fill="#9C9C9C"/>
</g>
<g id="Rectangle 3">
<use xlink:href="#path1_stroke" transform="translate(2935 8603)" fill="#BFBFBF"/>
</g>
</g>
</g>
<defs>
<path id="path0_fill" d="M 8.57031 14.5039C 9.19531 14.5039 9.70313 14.332 10.0938 13.9883C 10.4844 13.6445 10.6875 13.1875 10.7031 12.6172L 13.8789 12.6172C 13.8711 13.4766 13.6367 14.2656 13.1758 14.9844C 12.7148 15.6953 12.082 16.25 11.2773 16.6484C 10.4805 17.0391 9.59766 17.2344 8.62891 17.2344C 6.81641 17.2344 5.38672 16.6602 4.33984 15.5117C 3.29297 14.3555 2.76953 12.7617 2.76953 10.7305L 2.76953 10.5078C 2.76953 8.55469 3.28906 6.99609 4.32812 5.83203C 5.36719 4.66797 6.79297 4.08594 8.60547 4.08594C 10.1914 4.08594 11.4609 4.53906 12.4141 5.44531C 13.375 6.34375 13.8633 7.54297 13.8789 9.04297L 10.7031 9.04297C 10.6875 8.38672 10.4844 7.85547 10.0938 7.44922C 9.70313 7.03516 9.1875 6.82812 8.54688 6.82812C 7.75781 6.82812 7.16016 7.11719 6.75391 7.69531C 6.35547 8.26563 6.15625 9.19531 6.15625 10.4844L 6.15625 10.8359C 6.15625 12.1406 6.35547 13.0781 6.75391 13.6484C 7.15234 14.2188 7.75781 14.5039 8.57031 14.5039ZM 22.6797 13.4961C 22.6797 13.082 22.4727 12.7578 22.0586 12.5234C 21.6523 12.2813 20.9961 12.0664 20.0898 11.8789C 17.0742 11.2461 15.5664 9.96484 15.5664 8.03516C 15.5664 6.91016 16.0313 5.97266 16.9609 5.22266C 17.8984 4.46484 19.1211 4.08594 20.6289 4.08594C 22.2383 4.08594 23.5234 4.46484 24.4844 5.22266C 25.4531 5.98047 25.9375 6.96484 25.9375 8.17578L 22.5508 8.17578C 22.5508 7.69141 22.3945 7.29297 22.082 6.98047C 21.7695 6.66016 21.2813 6.5 20.6172 6.5C 20.0469 6.5 19.6055 6.62891 19.293 6.88672C 18.9805 7.14453 18.8242 7.47266 18.8242 7.87109C 18.8242 8.24609 19 8.55078 19.3516 8.78516C 19.7109 9.01172 20.3125 9.21094 21.1562 9.38281C 22 9.54688 22.7109 9.73438 23.2891 9.94531C 25.0781 10.6016 25.9727 11.7383 25.9727 13.3555C 25.9727 14.5117 25.4766 15.4492 24.4844 16.168C 23.4922 16.8789 22.2109 17.2344 20.6406 17.2344C 19.5781 17.2344 18.6328 17.0469 17.8047 16.6719C 16.9844 16.2891 16.3398 15.7695 15.8711 15.1133C 15.4023 14.4492 15.168 13.7344 15.168 12.9688L 18.3789 12.9688C 18.4102 13.5703 18.6328 14.0313 19.0469 14.3516C 19.4609 14.6719 20.0156 14.832 20.7109 14.832C 21.3594 14.832 21.8477 14.7109 22.1758 14.4688C 22.5117 14.2188 22.6797 13.8945 22.6797 13.4961ZM 32.9102 12.8633L 35.2656 4.32031L 38.8047 4.32031L 34.5273 17L 31.293 17L 27.0156 4.32031L 30.5547 4.32031L 32.9102 12.8633Z"/>
<path id="path1_stroke" d="M 4 1L 69 1L 69 -1L 4 -1L 4 1ZM 72 4L 72 28L 74 28L 74 4L 72 4ZM 69 31L 4 31L 4 33L 69 33L 69 31ZM 1 28L 1 4L -1 4L -1 28L 1 28ZM 4 31C 2.34315 31 1 29.6569 1 28L -1 28C -1 30.7614 1.23858 33 4 33L 4 31ZM 72 28C 72 29.6569 70.6569 31 69 31L 69 33C 71.7614 33 74 30.7614 74 28L 72 28ZM 69 1C 70.6569 1 72 2.34315 72 4L 74 4C 74 1.23858 71.7614 -1 69 -1L 69 1ZM 4 -1C 1.23858 -1 -1 1.23858 -1 4L 1 4C 1 2.34315 2.34315 1 4 1L 4 -1Z"/>
</defs>
</svg>
